<svg width="60" height="60" viewBox="0 0 60 60" fill="none" xmlns="http://www.w3.org/2000/svg">
<rect x="1" y="1" width="58" height="58" rx="9" stroke="black" stroke-width="2"/>
<path d="M35.3859 37.8559C35.3859 38.0599 35.3049 38.2555 35.1606 38.3997C35.0163 38.544 34.8206 38.625 34.6165 38.625H25.3836C25.1796 38.625 24.9839 38.544 24.8396 38.3997C24.6953 38.2555 24.6142 38.0599 24.6142 37.8559C24.6142 37.652 24.6953 37.4564 24.8396 37.3121C24.9839 37.1679 25.1796 37.0869 25.3836 37.0869H34.6165C34.8206 37.0869 35.0163 37.1679 35.1606 37.3121C35.3049 37.4564 35.3859 37.652 35.3859 37.8559ZM34.6165 34.0106H25.3836C25.1796 34.0106 24.9839 34.0916 24.8396 34.2359C24.6953 34.3801 24.6142 34.5757 24.6142 34.7797C24.6142 34.9836 24.6953 35.1793 24.8396 35.3235C24.9839 35.4677 25.1796 35.5487 25.3836 35.5487H34.6165C34.8206 35.5487 35.0163 35.4677 35.1606 35.3235C35.3049 35.1793 35.3859 34.9836 35.3859 34.7797C35.3859 34.5757 35.3049 34.3801 35.1606 34.2359C35.0163 34.0916 34.8206 34.0106 34.6165 34.0106ZM39.7812 28.0792L30.5483 18.8504C30.4024 18.706 30.2054 18.625 30.0001 18.625C29.7948 18.625 29.5977 18.706 29.4519 18.8504L20.219 28.0792C20.1146 28.1904 20.0438 28.3289 20.0149 28.4786C19.986 28.6283 20 28.7831 20.0555 28.9252C20.1143 29.0651 20.2133 29.1846 20.34 29.2684C20.4666 29.3522 20.6153 29.3967 20.7672 29.3962H24.6142V31.7034C24.6142 31.9074 24.6953 32.103 24.8396 32.2472C24.9839 32.3915 25.1796 32.4725 25.3836 32.4725H34.6165C34.8206 32.4725 35.0163 32.3915 35.1606 32.2472C35.3049 32.103 35.3859 31.9074 35.3859 31.7034V29.3962H39.233C39.3849 29.3967 39.5335 29.3522 39.6602 29.2684C39.7868 29.1846 39.8858 29.0651 39.9447 28.9252C40.0001 28.7831 40.0142 28.6283 39.9852 28.4786C39.9563 28.3289 39.8855 28.1904 39.7812 28.0792Z" fill="black"/>
</svg>
