<svg width="60" height="60" viewBox="0 0 60 60" fill="none" xmlns="http://www.w3.org/2000/svg">
<rect x="1" y="1" width="58" height="58" rx="9" stroke="black" stroke-width="2"/>
<path fill-rule="evenodd" clip-rule="evenodd" d="M23.5993 29.6003C22.3262 29.6003 21.1053 29.0946 20.2051 28.1944C19.3049 27.2942 18.7992 26.0732 18.7992 24.8001C18.7992 23.5271 19.3049 22.3061 20.2051 21.4059C21.1053 20.5057 22.3262 20 23.5993 20C24.8724 20 26.0933 20.5057 26.9935 21.4059C27.8937 22.3061 28.3995 23.5271 28.3995 24.8001C28.3995 26.0732 27.8937 27.2942 26.9935 28.1944C26.0933 29.0946 24.8724 29.6003 23.5993 29.6003ZM36.3997 29.6003C35.1266 29.6003 33.9057 29.0946 33.0055 28.1944C32.1053 27.2942 31.5996 26.0732 31.5996 24.8001C31.5996 23.5271 32.1053 22.3061 33.0055 21.4059C33.9057 20.5057 35.1266 20 36.3997 20C37.6728 20 38.8937 20.5057 39.7939 21.4059C40.6941 22.3061 41.1999 23.5271 41.1999 24.8001C41.1999 26.0732 40.6941 27.2942 39.7939 28.1944C38.8937 29.0946 37.6728 29.6003 36.3997 29.6003ZM23.5993 32.8004C25.4156 32.7982 27.2115 33.1836 28.8671 33.9308C30.5226 34.678 31.9996 35.7698 33.1996 37.1333V39.2006H13.999V37.1333C15.199 35.7698 16.676 34.678 18.3316 33.9308C19.9871 33.1836 21.783 32.7982 23.5993 32.8004ZM36.3997 39.2006V35.9237L35.5997 35.0165C34.989 34.324 34.3198 33.6853 33.5996 33.1076C34.5189 32.9029 35.4579 32.7998 36.3997 32.8004C38.216 32.7982 40.0119 33.1836 41.6675 33.9308C43.323 34.678 44.8 35.7698 46 37.1333V39.2006H36.3997Z" fill="black"/>
</svg>
