<svg width="60" height="60" viewBox="0 0 60 60" fill="none" xmlns="http://www.w3.org/2000/svg">
<rect x="1" y="1" width="58" height="58" rx="9" stroke="black" stroke-width="2"/>
<path d="M32.121 28.4799C31.9334 28.2924 31.6791 28.1871 31.414 28.1871C31.1488 28.1871 30.8945 28.2924 30.707 28.4799L30 29.1859C29.8155 29.3769 29.5948 29.5293 29.3508 29.6341C29.1068 29.7389 28.8443 29.7941 28.5788 29.7964C28.3132 29.7987 28.0498 29.7481 27.8041 29.6475C27.5583 29.5469 27.335 29.3984 27.1472 29.2107C26.9594 29.0229 26.8109 28.7996 26.7103 28.5538C26.6098 28.308 26.5592 28.0446 26.5615 27.7791C26.5638 27.5135 26.6189 27.2511 26.7238 27.0071C26.8286 26.763 26.9809 26.5424 27.172 26.3579L32.802 20.7259C34.1349 20.4227 35.5295 20.5475 36.7874 21.0824C38.0453 21.6174 39.1026 22.5354 39.8088 23.7058C40.5151 24.8762 40.8344 26.2394 40.7213 27.6017C40.6082 28.964 40.0685 30.2559 39.179 31.2939L37.071 33.4289L32.121 28.4799ZM21.161 22.4679C22.1957 21.4332 23.5492 20.7778 25.0025 20.6076C26.4559 20.4374 27.9241 20.7623 29.17 21.5299L25.757 24.9439C25.0178 25.6816 24.5964 26.6792 24.5829 27.7234C24.5694 28.7677 24.9648 29.7758 25.6847 30.5324C26.4046 31.289 27.3919 31.734 28.4355 31.7724C29.4792 31.8108 30.4964 31.4395 31.27 30.7379L31.414 30.6009L35.657 34.8429L31.414 39.0859C31.0389 39.4608 30.5303 39.6714 30 39.6714C29.4696 39.6714 28.961 39.4608 28.586 39.0859L21.16 31.6599C19.9411 30.4409 19.2563 28.7877 19.2563 27.0639C19.2563 25.3401 19.9421 23.6868 21.161 22.4679Z" fill="black"/>
</svg>
