<svg width="60" height="60" viewBox="0 0 60 60" fill="none" xmlns="http://www.w3.org/2000/svg">
<rect x="1" y="1" width="58" height="58" rx="9" stroke="black" stroke-width="2"/>
<path d="M30 17.5C23.1075 17.5 17.5 23.1075 17.5 30V35.1787C17.5 36.4587 18.6212 37.5 20 37.5H21.25C21.5815 37.5 21.8995 37.3683 22.1339 37.1339C22.3683 36.8995 22.5 36.5815 22.5 36.25V29.8213C22.5 29.4897 22.3683 29.1718 22.1339 28.9374C21.8995 28.7029 21.5815 28.5713 21.25 28.5713H20.115C20.81 23.7338 24.9725 20 30 20C35.0275 20 39.19 23.7338 39.885 28.5713H38.75C38.4185 28.5713 38.1005 28.7029 37.8661 28.9374C37.6317 29.1718 37.5 29.4897 37.5 29.8213V37.5C37.5 38.8787 36.3787 40 35 40H32.5V38.75H27.5V42.5H35C37.7575 42.5 40 40.2575 40 37.5C41.3787 37.5 42.5 36.4587 42.5 35.1787V30C42.5 23.1075 36.8925 17.5 30 17.5Z" fill="black"/>
</svg>
