<svg width="60" height="60" viewBox="0 0 60 60" fill="none" xmlns="http://www.w3.org/2000/svg">
<rect x="1" y="1" width="58" height="58" rx="9" stroke="black" stroke-width="2"/>
<path d="M42 19.5H41.5V20V36L42.4961 36.062L43.5 28.0311V36C43.5 36.3978 43.342 36.7794 43.0607 37.0607C42.7794 37.342 42.3978 37.5 42 37.5H34H33.5V38V42V42.5H34H37.5V43.5H22.5V42.5H26H26.5V42V38V37.5H26H18C17.6022 37.5 17.2206 37.342 16.9393 37.0607C16.658 36.7794 16.5 36.3978 16.5 36V20C16.5 19.6022 16.658 19.2206 16.9393 18.9393C17.2206 18.658 17.6022 18.5 18 18.5H42C42.6531 18.5 43.2087 18.9174 43.4146 19.5H42ZM42.5 20.5H43.4336L42.5 27.9689V20.5ZM32 42.5H32.5V42V38V37.5H32H28H27.5V38V42V42.5H28H32Z" fill="black" stroke="black"/>
<path d="M33.1495 27.3578L33.2082 27.6429H33.4993H34.6429V28.3571H33.4993H33.2082L33.1495 28.6422C33.0666 29.0443 32.907 29.4267 32.6793 29.7683L32.5169 30.0119L32.7239 30.219L33.5356 31.0307L33.0307 31.5356L32.219 30.7239L32.0119 30.5169L31.7683 30.6793C31.4267 30.907 31.0443 31.0666 30.6422 31.1495L30.3571 31.2082V31.4993V32.6429H29.6429V31.4993V31.2082L29.3578 31.1495C28.9557 31.0666 28.5733 30.907 28.2317 30.6793L27.9881 30.5169L27.781 30.7239L26.9693 31.5356L26.4644 31.0307L27.2761 30.219L27.4831 30.0119L27.3207 29.7683C27.093 29.4267 26.9334 29.0443 26.8505 28.6422L26.7918 28.3571H26.5007H25.3571V27.6429H26.5007H26.7918L26.8505 27.3578C26.9334 26.9557 27.093 26.5733 27.3207 26.2317L27.4831 25.9881L27.2761 25.781L26.4644 24.9693L26.9693 24.4644L27.781 25.2761L27.9881 25.4831L28.2317 25.3207C28.5733 25.093 28.9557 24.9334 29.3578 24.8505L29.6429 24.7918V24.5007V23.3571H30.3571V24.5007V24.7918L30.6422 24.8505C31.0443 24.9334 31.4267 25.093 31.7683 25.3207L32.0119 25.4831L32.219 25.2761L33.0307 24.4644L33.5356 24.9693L32.7239 25.781L32.5169 25.9881L32.6793 26.2317C32.907 26.5733 33.0666 26.9557 33.1495 27.3578ZM30 30.5H30.0004C30.6631 30.4993 31.2985 30.2358 31.7671 29.7671C32.2358 29.2985 32.4993 28.6631 32.5 28.0004V28C32.5 27.5055 32.3534 27.0222 32.0787 26.6111C31.804 26.2 31.4135 25.8795 30.9567 25.6903C30.4999 25.5011 29.9972 25.4516 29.5123 25.548C29.0273 25.6445 28.5819 25.8826 28.2322 26.2322C27.8826 26.5819 27.6445 27.0273 27.548 27.5123C27.4516 27.9972 27.5011 28.4999 27.6903 28.9567C27.8795 29.4135 28.2 29.804 28.6111 30.0787C29.0222 30.3534 29.5055 30.5 30 30.5Z" fill="white" stroke="white" stroke-width="0.714286"/>
</svg>
