<svg width="60" height="60" viewBox="0 0 60 60" fill="none" xmlns="http://www.w3.org/2000/svg">
<rect x="1" y="1" width="58" height="58" rx="9" stroke="black" stroke-width="2"/>
<path d="M39 25.5625C39 26.6671 38.1046 27.5625 37 27.5625H34.0576C33.1629 27.5625 32.4375 26.8371 32.4375 25.9424L25.0854 30.8438L32.4375 35.7451C32.4375 34.8504 33.1629 34.125 34.0576 34.125H37C38.1046 34.125 39 35.0204 39 36.125V38.6875C39 39.7921 38.1046 40.6875 37 40.6875H34.4375C33.3329 40.6875 32.4375 39.7921 32.4375 38.6875V37.3242L24.5625 32.0742V32.125C24.5625 33.2296 23.6671 34.125 22.5625 34.125H20C18.8954 34.125 18 33.2296 18 32.125V29.5625C18 28.4579 18.8954 27.5625 20 27.5625H22.5625C23.6671 27.5625 24.5625 28.4579 24.5625 29.5625V29.6133L32.4375 24.3633V23C32.4375 21.8954 33.3329 21 34.4375 21H37C38.1046 21 39 21.8954 39 23V25.5625Z" fill="black"/>
</svg>
