<svg width="60" height="60" viewBox="0 0 60 60" fill="none" xmlns="http://www.w3.org/2000/svg">
<rect x="1" y="1" width="58" height="58" rx="9" stroke="black" stroke-width="2"/>
<path d="M43.625 41.5L38.5 36.375C39 35.125 38.75 33.5 37.625 32.5C36.5 31.375 34.875 31.125 33.5 31.75L35.875 34.125L34.125 35.875L31.625 33.375C31 34.75 31.25 36.375 32.375 37.625C33.5 38.75 35 39 36.25 38.5L41.375 43.625C41.625 43.875 42 43.875 42.125 43.625L43.375 42.375C43.75 42 43.75 41.625 43.625 41.5ZM31.25 40H17.5V37.5C17.5 34.75 22 32.5 27.5 32.5C28.125 32.5 28.75 32.5 29.25 32.625C28.875 33.375 28.75 34.125 28.75 35C28.75 37 29.75 38.875 31.25 40ZM27.5 20C24.75 20 22.5 22.25 22.5 25C22.5 27.75 24.75 30 27.5 30C30.25 30 32.5 27.75 32.5 25C32.5 22.25 30.25 20 27.5 20Z" fill="black"/>
</svg>
