<svg width="60" height="60" viewBox="0 0 60 60" fill="none" xmlns="http://www.w3.org/2000/svg">
<rect x="1" y="1" width="58" height="58" rx="9" stroke="black" stroke-width="2"/>
<path d="M41.451 22.0278C41.3461 21.9166 41.2177 21.8267 41.0737 21.7637C40.9297 21.7007 40.7733 21.666 40.6142 21.6618C38.1427 21.6018 35.0153 19.1478 32.9476 18.1848C31.6704 17.5918 30.8271 17.2008 30.1939 17.0978C30.0653 17.0804 29.9347 17.0807 29.8062 17.0988C29.173 17.2018 28.3297 17.5928 27.0536 18.1858C24.9859 19.1478 21.8585 21.6018 19.387 21.6618C19.2278 21.6662 19.0713 21.701 18.9271 21.764C18.783 21.827 18.6543 21.9167 18.5491 22.0278C18.331 22.2569 18.2185 22.5564 18.2357 22.8618C18.7667 32.8848 22.6382 39.0878 29.4314 42.6928C29.608 42.7858 29.804 42.8338 29.999 42.8338C30.1939 42.8338 30.3899 42.7858 30.5676 42.6928C37.3608 39.0878 41.2313 32.8848 41.7633 22.8618C41.7815 22.5564 41.6693 22.2567 41.451 22.0278ZM36.0491 25.9698L30.3167 33.8248C30.111 34.1068 29.7879 34.2938 29.468 34.2938C29.1471 34.2938 28.7907 34.1308 28.5656 33.9218L24.525 30.1688C24.393 30.0458 24.319 29.8793 24.319 29.7058C24.319 29.5322 24.393 29.3657 24.525 29.2428L25.5233 28.3138C25.656 28.1918 25.8352 28.1233 26.0219 28.1233C26.2086 28.1233 26.3878 28.1918 26.5205 28.3138L29.1482 30.7538L33.7133 24.4968C33.8189 24.3536 33.9812 24.255 34.1649 24.2226C34.3485 24.1902 34.5384 24.2266 34.6933 24.3238L35.8617 25.0598C36.0161 25.1577 36.1225 25.3084 36.1576 25.4789C36.1927 25.6494 36.1537 25.8259 36.0491 25.9698Z" fill="black"/>
</svg>
